<?xml version="1.0" encoding="utf-8"?>
<!-- Generator: Adobe Illustrator 24.0.0, SVG Export Plug-In . SVG Version: 6.00 Build 0)  -->
<!DOCTYPE svg PUBLIC "-//W3C//DTD SVG 1.1//EN" "http://www.w3.org/Graphics/SVG/1.1/DTD/svg11.dtd" [
	<!ENTITY ns_extend "http://ns.adobe.com/Extensibility/1.0/">
	<!ENTITY ns_ai "http://ns.adobe.com/AdobeIllustrator/10.0/">
	<!ENTITY ns_graphs "http://ns.adobe.com/Graphs/1.0/">
	<!ENTITY ns_vars "http://ns.adobe.com/Variables/1.0/">
	<!ENTITY ns_imrep "http://ns.adobe.com/ImageReplacement/1.0/">
	<!ENTITY ns_sfw "http://ns.adobe.com/SaveForWeb/1.0/">
	<!ENTITY ns_custom "http://ns.adobe.com/GenericCustomNamespace/1.0/">
	<!ENTITY ns_adobe_xpath "http://ns.adobe.com/XPath/1.0/">
]>
<svg version="1.1" id="Layer_1" xmlns:x="&ns_extend;" xmlns:i="&ns_ai;" xmlns:graph="&ns_graphs;"
	 xmlns="http://www.w3.org/2000/svg" xmlns:xlink="http://www.w3.org/1999/xlink" x="0px" y="0px" viewBox="0 0 28 28"
	 style="enable-background:new 0 0 28 28;" xml:space="preserve">
<style type="text/css">
	.st0{fill:#010101;}
</style>
<metadata>
	<sfw  xmlns="&ns_sfw;">
		<slices></slices>
		<sliceSourceBounds  bottomLeftOrigin="true" height="24.3" width="27" x="0.5" y="-26.1"></sliceSourceBounds>
	</sfw>
</metadata>
<g>
	<path class="st0" d="M8.3,17V8.6H3.2c-1.5,0-2.7,1.2-2.7,2.7v8.1c0,1.5,1.2,2.7,2.7,2.7h1.4v4l4.1-4h6.8c1.5,0,2.7-1.2,2.7-2.7
		v-2.5c-0.1,0-0.2,0-0.3,0H8.3z M24.8,1.9H12.6c-1.5,0-2.7,1.2-2.7,2.7v10.8h9.4l4.1,4v-4h1.3c1.5,0,2.7-1.2,2.7-2.7V4.6
		C27.5,3.1,26.3,1.9,24.8,1.9z"/>
</g>
</svg>
