<?xml version="1.0" encoding="utf-8"?>
<!-- Generator: Adobe Illustrator 24.0.0, SVG Export Plug-In . SVG Version: 6.00 Build 0)  -->
<!DOCTYPE svg PUBLIC "-//W3C//DTD SVG 1.1//EN" "http://www.w3.org/Graphics/SVG/1.1/DTD/svg11.dtd" [
	<!ENTITY ns_extend "http://ns.adobe.com/Extensibility/1.0/">
	<!ENTITY ns_ai "http://ns.adobe.com/AdobeIllustrator/10.0/">
	<!ENTITY ns_graphs "http://ns.adobe.com/Graphs/1.0/">
	<!ENTITY ns_vars "http://ns.adobe.com/Variables/1.0/">
	<!ENTITY ns_imrep "http://ns.adobe.com/ImageReplacement/1.0/">
	<!ENTITY ns_sfw "http://ns.adobe.com/SaveForWeb/1.0/">
	<!ENTITY ns_custom "http://ns.adobe.com/GenericCustomNamespace/1.0/">
	<!ENTITY ns_adobe_xpath "http://ns.adobe.com/XPath/1.0/">
]>
<svg version="1.1" id="Layer_1" xmlns:x="&ns_extend;" xmlns:i="&ns_ai;" xmlns:graph="&ns_graphs;"
	 xmlns="http://www.w3.org/2000/svg" xmlns:xlink="http://www.w3.org/1999/xlink" x="0px" y="0px" viewBox="0 0 28 28"
	 style="enable-background:new 0 0 28 28;" xml:space="preserve">
<metadata>
	<sfw  xmlns="&ns_sfw;">
		<slices></slices>
		<sliceSourceBounds  bottomLeftOrigin="true" height="22.8" width="28" x="0" y="-25.8"></sliceSourceBounds>
	</sfw>
</metadata>
<g>
	<path class="st0" d="M25.7,4.9c-2.7-2.5-7.1-2.5-9.9,0L14,6.6l-1.8-1.7C9.4,2.4,5,2.4,2.3,4.9c-3.1,2.8-3.1,7.4,0,10.2L14,25.8
		l11.7-10.7C28.8,12.3,28.8,7.7,25.7,4.9z M19,17.8c0,0.1,0,0.2-0.1,0.3c-0.2,0.3-0.4,0.5-0.6,0.7c-0.4,0.4-0.8,0.8-1.3,1.1
		c-0.2,0.1-0.4,0.2-0.6,0.3c-0.3,0.1-0.6,0.2-0.9,0.3c-0.3,0.1-0.6,0.1-0.9,0.2c-0.2,0-0.5,0-0.7,0c-0.5,0-1-0.1-1.5-0.2
		c-1-0.3-1.8-0.8-2.5-1.5c-0.4-0.3-0.7-0.8-1-1.2c-0.3-0.4-0.5-0.9-0.7-1.4c0,0,0-0.1,0-0.1H5.9c-0.3,0-0.5-0.1-0.6-0.3
		C5.1,16.1,5,15.8,5,15.6c0-0.2,0.1-0.5,0.3-0.6c0.2-0.2,0.4-0.3,0.6-0.3h0c0.3,0,0.7,0,1,0h0.8v0c0-0.3,0-0.7,0-1
		c0-0.1,0-0.2,0-0.3H5.9c-0.3,0-0.5-0.1-0.6-0.3C5.1,12.9,5,12.7,5,12.4c0-0.2,0.1-0.5,0.3-0.6c0.2-0.2,0.4-0.3,0.6-0.3c0,0,0,0,0,0
		h2.2c0.1-0.3,0.2-0.6,0.4-0.9C9,9.7,9.6,9,10.4,8.4c0.7-0.6,1.6-1,2.5-1.2c0.5-0.1,1.1-0.1,1.6,0c0.3,0,0.6,0.1,1,0.2
		c0.3,0.1,0.6,0.2,0.9,0.3c0.5,0.2,1,0.5,1.4,0.9c0.4,0.4,0.8,0.8,1.1,1.3C19,10,19,10.3,19,10.5c-0.1,0.2-0.2,0.4-0.4,0.5
		c-0.2,0.1-0.5,0.2-0.7,0.1c-0.1,0-0.2-0.1-0.3-0.2c-0.1-0.1-0.2-0.2-0.2-0.3c-0.3-0.3-0.6-0.7-0.9-0.9c-0.3-0.2-0.6-0.4-1-0.6
		c-0.3-0.1-0.6-0.2-1-0.3c-0.4,0-0.7,0-1.1,0c-0.3,0-0.6,0.1-0.9,0.3c-0.3,0.1-0.6,0.3-0.9,0.5c-0.3,0.3-0.7,0.6-0.9,0.9
		c-0.2,0.3-0.4,0.5-0.5,0.8h4.2c0.3,0,0.5,0.1,0.7,0.3s0.3,0.4,0.3,0.6c0,0.2-0.1,0.5-0.3,0.6c-0.2,0.2-0.4,0.3-0.7,0.3c0,0,0,0,0,0
		H9.5c0,0.4,0,0.9,0,1.3v0h4.8c0.3,0,0.5,0.1,0.7,0.3c0.2,0.2,0.3,0.4,0.3,0.6c0,0.2-0.1,0.5-0.3,0.6c-0.2,0.2-0.4,0.3-0.7,0.3h-4.2
		c0.2,0.3,0.3,0.6,0.6,0.9c0.3,0.3,0.6,0.6,0.9,0.9c0.3,0.2,0.5,0.3,0.8,0.5c0.3,0.1,0.6,0.2,0.9,0.3c0,0,0.1,0,0.1,0
		c0.3,0,0.6,0,1,0c0.4-0.1,0.8-0.2,1.1-0.3c0.3-0.1,0.7-0.3,0.9-0.6c0,0,0,0,0.1,0c0.3-0.3,0.6-0.5,0.8-0.9c0.1-0.1,0.2-0.3,0.3-0.3
		c0.1,0,0.1-0.1,0.2-0.1c0.2-0.1,0.5,0,0.7,0.1c0.2,0.1,0.4,0.3,0.4,0.5C19,17.6,19,17.7,19,17.8z"/>
</g>
<g>
	<g id="XMLID_1_">
		<g>
		</g>
		<g>
		</g>
	</g>
</g>
</svg>
