<?xml version="1.0" encoding="utf-8"?>
<!-- Generator: Adobe Illustrator 24.0.0, SVG Export Plug-In . SVG Version: 6.00 Build 0)  -->
<!DOCTYPE svg PUBLIC "-//W3C//DTD SVG 1.1//EN" "http://www.w3.org/Graphics/SVG/1.1/DTD/svg11.dtd" [
	<!ENTITY ns_extend "http://ns.adobe.com/Extensibility/1.0/">
	<!ENTITY ns_ai "http://ns.adobe.com/AdobeIllustrator/10.0/">
	<!ENTITY ns_graphs "http://ns.adobe.com/Graphs/1.0/">
	<!ENTITY ns_vars "http://ns.adobe.com/Variables/1.0/">
	<!ENTITY ns_imrep "http://ns.adobe.com/ImageReplacement/1.0/">
	<!ENTITY ns_sfw "http://ns.adobe.com/SaveForWeb/1.0/">
	<!ENTITY ns_custom "http://ns.adobe.com/GenericCustomNamespace/1.0/">
	<!ENTITY ns_adobe_xpath "http://ns.adobe.com/XPath/1.0/">
]>
<svg version="1.1" id="Layer_1" xmlns:x="&ns_extend;" xmlns:i="&ns_ai;" xmlns:graph="&ns_graphs;"
	 xmlns="http://www.w3.org/2000/svg" xmlns:xlink="http://www.w3.org/1999/xlink" x="0px" y="0px" viewBox="0 0 28 28"
	 style="enable-background:new 0 0 28 28;" xml:space="preserve">
<metadata>
	<sfw  xmlns="&ns_sfw;">
		<slices></slices>
		<sliceSourceBounds  bottomLeftOrigin="true" height="16.6" width="25.7" x="1.1" y="-22.3"></sliceSourceBounds>
	</sfw>
</metadata>
<g>
	<path style="fill:#010101;" d="M2,7.3c0.7,0.4,10.4,5.6,10.7,5.8c0.4,0.2,0.8,0.3,1.3,0.3c0.5,0,0.9-0.1,1.3-0.3
		c0.4-0.2,10-5.4,10.7-5.8c0.7-0.4,1.4-1.6,0.1-1.6H1.9C0.6,5.7,1.3,6.9,2,7.3z M26.3,10.1c-0.8,0.4-10.5,5.5-11,5.8
		c-0.5,0.3-0.8,0.3-1.3,0.3c-0.5,0-0.8,0-1.3-0.3c-0.5-0.3-10.2-5.3-11-5.8c-0.6-0.3-0.6,0.1-0.6,0.3c0,0.3,0,10.5,0,10.5
		c0,0.6,0.8,1.4,1.4,1.4h22.9c0.6,0,1.4-0.8,1.4-1.4c0,0,0-10.2,0-10.5C26.9,10.2,26.9,9.8,26.3,10.1z"/>
</g>
</svg>
